:SAMPLES-PER-SECOND 30
:FRAME-RANGE 1-2091
:FULLY-SPECIFIED
:DEGREES
850
root  28.3577 38.9397 67.0221 -6.15938 33.5766 -1.33568
RightUpLeg  13.4623 -5.88697 -3.12939
RightLeg  8.8337 5.60449 -0.7093
RightFoot  -14.6149 0.059061 5.53316
RightToes  5.82063e-011 0 -3.6325e-017
Spine  0.763523 -0.992936 4.20998
Spine1  1.9523 -1.48779 2.86639
HEad  13.2861 50.6862 2.96084
LeftShoulder1  1.65089 -2.00399 -23.7244
LeftArm  78.8443 -41.2093 -43.1763
LeftForeArm  -19.9054 -19.0736 -10.8698
LeftHand  0.0747918 1.13993 -2.24474
RightShoulder  10.4033 16.662 45.05
RightArm  27.1828 7.05267 17.3919
RightForeArm  5.48949 29.6841 6.16185
RightHand  0.41939 3.81834 5.0199
LeftUpLeg  -10.6906 10.5515 7.30198
LeftLeg  2.18667 11.9603 -2.8842
LeftFoot  9.382 0.456183 -2.80851
LeftToes  -6.27584e-011 -2.25241e-010 2.80627e-011
851
root  29.4916 38.7206 67.585 -6.41754 33.7418 -0.927567
RightUpLeg  15.2244 -5.65384 -4.51085
RightLeg  10.1188 5.88236 -1.28046
RightFoot  -16.3165 0.213729 7.46048
RightToes  5.82063e-011 0 -3.6325e-017
Spine  0.447619 -1.05606 2.74707
Spine1  2.49484 -1.75123 3.66754
HEad  13.191 50.519 3.06994
LeftShoulder1  1.67523 -2.05208 -23.9125
LeftArm  82.6788 -40.0413 -44.5321
LeftForeArm  -21.7041 -19.9513 -9.96009
LeftHand  0.0784177 1.36512 -2.54402
RightShoulder  9.88482 15.4566 45.5615
RightArm  31.3691 5.82954 16.9145
RightForeArm  2.31121 26.7009 5.62349
RightHand  0.402067 3.87492 4.76866
LeftUpLeg  -11.6678 11.5494 5.27993
LeftLeg  7.31837 8.77759 -1.11499
LeftFoot  11.4735 -0.440109 1.83287
LeftToes  -6.27584e-011 -2.25241e-010 2.80627e-011
852
root  30.6272 38.4671 68.113 -6.50984 34.9566 0.107056
RightUpLeg  15.8751 -3.26443 -5.77036
RightLeg  14.3092 3.34842 -1.41526
RightFoot  -17.9961 0.493702 10.5699
RightToes  5.82063e-011 0 -3.6325e-017
Spine  1.21692 -1.48718 0.628576
Spine1  2.11383 -2.35355 4.70868
HEad  13.4799 50.0766 3.37149
LeftShoulder1  1.7296 -2.10383 -24.6381
LeftArm  87.5713 -38.132 -45.2505
LeftForeArm  -24.177 -21.0941 -8.75359
LeftHand  0.0820456 1.48982 -2.72917
RightShoulder  9.34396 13.8299 47.1754
RightArm  36.6176 5.09935 15.9529
RightForeArm  -2.01023 21.3625 6.11228
RightHand  0.353619 4.02544 4.08581
LeftUpLeg  -13.3403 14.8752 2.19615
LeftLeg  14.7381 3.70566 1.08161
LeftFoot  7.01915 -0.221626 1.10703
LeftToes  -6.27584e-011 -2.25241e-010 2.80627e-011
853
root  31.6819 38.407 68.5539 -6.0802 35.0143 1.3961
RightUpLeg  15.1507 2.83777 -6.52144
RightLeg  19.4856 -1.48621 -0.803126
RightFoot  -17.5385 0.719707 15.4193
RightToes  5.82063e-011 0 -3.6325e-017
Spine  1.56703 -1.39498 -0.424307
Spine1  2.38084 -2.21102 3.68018
HEad  12.9079 49.3724 3.04328
LeftShoulder1  1.81411 -2.22653 -25.4898
LeftArm  92.3113 -35.6126 -45.3936
LeftForeArm  -26.4023 -22.2223 -7.59936
LeftHand  0.0848688 1.61976 -2.79585
RightShoulder  8.88719 12.5967 48.3347
RightArm  19.1313 4.63446 14.5066
RightForeArm  14.7453 9.9258 14.0279
RightHand  0.303551 4.04417 3.46142
LeftUpLeg  -12.7044 16.0275 0.400115
LeftLeg  17.4786 2.65933 1.22971
LeftFoot  4.02142 -0.207898 1.36063
LeftToes  -6.27584e-011 -2.25241e-010 2.80627e-011
854
root  32.6419 38.4269 68.8802 -4.69742 34.1014 3.1524
RightUpLeg  11.1419 3.20888 -9.70335
RightLeg  27.9258 -0.308514 -0.404603
RightFoot  -14.7939 0.547072 21.2826
RightToes  5.82063e-011 0 -3.6325e-017
Spine  1.72377 -0.953903 -1.73427
Spine1  2.71585 -1.87069 1.96205
HEad  12.5893 49.0598 2.34119
LeftShoulder1  1.89023 -2.25514 -26.6994
LeftArm  94.1324 -32.4172 -44.6583
LeftForeArm  -27.2375 -22.7509 -7.11694
LeftHand  0.0901937 1.59658 -3.01795
RightShoulder  8.72906 12.1121 48.9553
RightArm  4.01629 3.38319 12.8073
RightForeArm  24.6547 -2.1661 16.3441
RightHand  0.319864 3.59598 3.87737
LeftUpLeg  -11.757 14.9562 -1.53377
LeftLeg  18.0001 4.85053 1.5347
LeftFoot  2.22408 -0.272803 2.18041
LeftToes  -6.27584e-011 -2.25241e-010 2.80627e-011
855
root  33.5415 38.4132 69.2214 -3.40816 33.4205 4.37891
RightUpLeg  5.1102 3.70268 -11.9046
RightLeg  38.4606 -0.904793 -1.03639
RightFoot  -8.62943 -0.645714 24.4223
RightToes  5.82063e-011 0 -3.6325e-017
Spine  2.31824 -0.802091 -3.4638
Spine1  2.23616 -1.98624 1.94133
HEad  12.2502 49.0272 1.51387
LeftShoulder1  1.89871 -2.08752 -27.8693
LeftArm  95.7382 -28.8805 -43.1863
LeftForeArm  -27.7944 -23.3092 -6.69633
LeftHand  0.0924245 1.64835 -3.10805
RightShoulder  8.43323 11.5867 48.9465
RightArm  -0.263419 2.02291 11.9368
RightForeArm  25.223 -6.64976 16.1818
RightHand  0.362989 2.6899 5.00585
LeftUpLeg  -11.2833 14.091 -3.0045
LeftLeg  18.7863 6.63878 1.5788
LeftFoot  0.191088 -0.242524 2.39023
LeftToes  -6.27584e-011 -2.25241e-010 2.80627e-011
856
root  34.3925 38.4884 69.611 -2.91743 33.1476 4.85793
RightUpLeg  -1.41584 4.18544 -12.3431
RightLeg  48.8791 -3.02213 -4.04196
RightFoot  1.60873 -1.841 16.2189
RightToes  5.82063e-011 0 -3.6325e-017
Spine  3.11971 -0.874415 -4.74097
Spine1  2.02276 -2.24464 2.53005
HEad  10.8245 48.9518 0.272755
LeftShoulder1  1.91473 -2.04787 -28.4139
LeftArm  98.019 -25.7552 -41.7242
LeftForeArm  -28.9994 -23.5357 -6.63239
LeftHand  0.0912215 1.69308 -3.21261
RightShoulder  7.84784 10.4703 49.1951
RightArm  -3.66933 0.823253 10.7092
RightForeArm  28.7027 -6.96574 15.681
RightHand  0.429981 2.07791 6.51172
LeftUpLeg  -9.94231 13.4549 -3.69421
LeftLeg  18.6335 7.80943 1.31943
LeftFoot  -1.38389 -0.218405 2.60299
LeftToes  -6.27584e-011 -2.25241e-010 2.80627e-011
857
root  35.1024 38.4338 69.97 -2.55376 33.2268 5.21356
RightUpLeg  -6.81514 4.62333 -12.1534
RightLeg  56.391 -4.0734 -6.9953
RightFoot  5.47619 -1.74174 11.9978
RightToes  5.82063e-011 0 -3.6325e-017
Spine  4.0686 -1.00835 -5.99356
Spine1  2.12915 -2.61098 2.40708
HEad  9.34212 48.3946 -0.935187
LeftShoulder1  1.9219 -2.01646 -28.7474
LeftArm  101.971 -23.1633 -39.9346
LeftForeArm  -32.0242 -24.0413 -6.60898
LeftHand  0.0776867 1.82136 -2.90625
RightShoulder  6.95296 8.85424 49.2936
RightArm  -1.80519 -0.710188 10.0009
RightForeArm  29.9146 -6.611 15.9413
RightHand  0.476431 2.1488 7.15761
LeftUpLeg  -9.39078 12.6873 -4.29849
LeftLeg  19.7064 8.59176 1.26785
LeftFoot  -3.23326 -0.18463 2.88007
LeftToes  -6.27584e-011 -2.25241e-010 2.80627e-011
858
root  35.7937 38.4549 70.3664 -2.75941 34.2019 4.71799
RightUpLeg  -10.7851 4.19707 -11.0276
RightLeg  60.5284 -3.5774 -7.32337
RightFoot  2.79746 -1.5276 12.4281
RightToes  5.82063e-011 0 -3.6325e-017
Spine  5.00229 -1.52168 -6.67595
Spine1  2.14427 -3.37334 2.92649
HEad  8.99374 47.279 -1.603
LeftShoulder1  1.92088 -1.94266 -29.2093
LeftArm  106.007 -20.7757 -37.952
LeftForeArm  -34.789 -24.5943 -6.77206
LeftHand  0.0675896 2.24767 -3.02116
RightShoulder  5.77089 6.86813 48.7578
RightArm  2.88306 -2.64439 10.1448
RightForeArm  29.0829 -5.85501 16.5477
RightHand  0.524845 2.62439 7.39112
LeftUpLeg  -8.50423 11.9882 -4.315
LeftLeg  20.2928 8.58001 1.32508
LeftFoot  -4.8167 -0.142384 3.00712
LeftToes  -6.27584e-011 -2.25241e-010 2.80627e-011
859
root  36.4645 38.5225 70.7794 -2.86163 35.358 4.0582
RightUpLeg  -14.3261 3.75517 -9.36481
RightLeg  61.6241 -3.47839 -7.47705
RightFoot  1.45914 -1.3877 12.4155
RightToes  5.82063e-011 0 -3.6325e-017
Spine  5.61822 -2.04609 -7.16469
Spine1  2.01862 -4.07023 3.62889
HEad  9.66667 45.5528 -1.67357
LeftShoulder1  1.94822 -1.97093 -29.5326
LeftArm  107.767 -18.5995 -36.286
LeftForeArm  -33.3955 -25.4393 -6.92544
LeftHand  0.0487673 2.89769 -3.11134
RightShoulder  4.53927 4.79739 47.9293
RightArm  10.4231 -4.83478 10.6399
RightForeArm  24.6461 -4.50645 17.4682
RightHand  0.525035 2.95356 7.0753
LeftUpLeg  -7.50179 10.8354 -4.15882
LeftLeg  20.1913 8.58494 1.16046
LeftFoot  -6.04726 -0.107148 3.10527
LeftToes  -6.27584e-011 -2.25241e-010 2.80627e-011
860
root  37.1161 38.6359 71.2089 -2.76756 36.2682 3.48303
RightUpLeg  -17.3361 3.6235 -7.53292
RightLeg  59.7008 -4.07477 -7.97767
RightFoot  0.50913 -1.2386 11.9279
RightToes  5.82063e-011 0 -3.6325e-017
Spine  5.82968 -2.48482 -7.51469
Spine1  1.92689 -4.55858 4.21551
HEad  11.0066 43.4986 -1.33094
LeftShoulder1  2.00534 -2.12451 -29.5789
LeftArm  109.135 -16.1631 -34.7052
LeftForeArm  -30.2134 -26.3548 -7.03304
LeftHand  0.0255312 3.68989 -3.30168
RightShoulder  3.51926 3.06065 47.0015
RightArm  16.2377 -7.11618 11.2923
RightForeArm  20.4796 -3.55221 18.0098
RightHand  0.518658 3.13733 6.8217
LeftUpLeg  -6.21267 9.49348 -3.90586
LeftLeg  19.2272 9.11978 0.705335
LeftFoot  -6.75327 -0.0934322 3.34713
LeftToes  -6.27584e-011 -2.25241e-010 2.80627e-011
